{"title":"Scarface.1983.720p.BRRip.XviD.AC3-PsychoLogic","uid":6633620,"size":4432822427,"categoryP":"video","categoryS":"hd___movies","magnet":"?xt=urn:btih:92fd56a84b2a6536a55e6c8c3eac223f54bea9f9&amp;dn=Scarface.1983.720p.BRRip.XviD.AC3-PsychoLogic&amp;tr=udp%3A%2F%2Ftracker.openbittorrent.com%3A80&amp;tr=udp%3A%2F%2Fopen.demonii.com%3A1337&amp;tr=udp%3A%2F%2Ftracker.coppersurfer.tk%3A6969&amp;tr=udp%3A%2F%2Fexodus.desync.com%3A6969","seeders":0,"leechers":0,"uploader":"PsychoLogic","files":10,"time":1314457320,"description":"Release Information:\n\nScarface.1983.720p.BRRip.XviD.AC3-PsychoLogic\n\nSource                           : Scarface.1983.720p.BluRay.X264-AMIABLE\nSubtitles                        : Croatian, Czech, English, Polish, Portuguese-BR, Swedish\nLanguage                         : English\nEncoded By                       : PsychoLogic\nSample Included                  : Yes\n\nMovie Information                : http://www.imdb.com/title/tt0086250/\nGenre                            : Crime | Drama | Thriller\nDirector                         : Brian De Palma\nCast                             : Al Pacino, Michelle Pfeiffer and Steven Bauer\nPlot                             : In 1980 Miami, a determined Cuban immigrant takes over a drug empire while succumbing to greed. (Cartel not Mafia) \n\nGeneral\nFormat                           : AVI\nFormat/Info                      : Audio Video Interleave\nFormat profile                   : OpenDML\nFile size                        : 4.10 GiB\nDuration                         : 2h 50mn\nOverall bit rate                 : 3 457 Kbps\nWriting application              : VirtualDubMod 1.5.10.2 (build 2542/release)\nWriting library                  : VirtualDubMod build 2542/release\n\nVideo\nID                               : 0\nFormat                           : MPEG-4 Visual\nFormat profile                   : Advanced Simple@L5\nFormat settings, BVOP            : 2\nFormat settings, QPel            : No\nFormat settings, GMC             : No warppoints\nFormat settings, Matrix          : Default (H.263)\nCodec ID                         : XVID\nCodec ID/Hint                    : XviD\nDuration                         : 2h 50mn\nBit rate                         : 3 000 Kbps\nWidth                            : 1 280 pixels\nHeight                           : 544 pixels\nDisplay aspect ratio             : 2.35:1\nFrame rate                       : 23.976 fps\nColor space                      : YUV\nChroma subsampling               : 4:2:0\nBit depth                        : 8 bits\nScan type                        : Progressive\nCompression mode                 : Lossy\nBits/(Pixel*Frame)               : 0.180\nStream size                      : 3.56 GiB (87%)\nWriting library                  : XviD 1.2.1 (UTC 2008-12-04)\n\nAudio\nID                               : 1\nFormat                           : AC-3\nFormat/Info                      : Audio Coding 3\nMode extension                   : CM (complete main)\nCodec ID                         : 2000\nDuration                         : 2h 50mn\nBit rate mode                    : Constant\nBit rate                         : 448 Kbps\nChannel(s)                       : 6 channels\nChannel positions                : Front: L C R, Side: L R, LFE\nSampling rate                    : 48.0 KHz\nBit depth                        : 16 bits\nCompression mode                 : Lossy\nStream size                      : 545 MiB (13%)\nAlignment                        : Split accross interleaves\nInterleave, duration             : 42 ms (1.00 video frame)\nInterleave, preload duration     : 500 ms\n\n","torrent":{"xt":"urn:btih:92fd56a84b2a6536a55e6c8c3eac223f54bea9f9","amp;dn":"Scarface.1983.720p.BRRip.XviD.AC3-PsychoLogic","amp;tr":["udp%3A%2F%2Ftracker.openbittorrent.com%3A80","udp%3A%2F%2Fopen.demonii.com%3A1337","udp%3A%2F%2Ftracker.coppersurfer.tk%3A6969","udp%3A%2F%2Fexodus.desync.com%3A6969"],"infoHash":"92fd56a84b2a6536a55e6c8c3eac223f54bea9f9","infoHashBuffer":{"type":"Buffer","data":[146,253,86,168,75,42,101,54,165,94,108,140,62,172,34,63,84,190,169,249]},"announce":[],"urlList":[]}}